<svg width="113" height="35" viewBox="0 0 113 35" fill="none" xmlns="http://www.w3.org/2000/svg">
<path d="M12.552 24.496H7.176V34H0.552V1.36H12.552C20.296 1.36 24.168 5.136 24.168 12.688C24.168 16.496 23.176 19.424 21.192 21.472C19.24 23.488 16.36 24.496 12.552 24.496ZM7.176 18.832H12.504C15.8 18.832 17.448 16.784 17.448 12.688C17.448 10.672 17.048 9.232 16.248 8.368C15.448 7.472 14.2 7.024 12.504 7.024H7.176V18.832ZM46.3913 17.488V27.472C46.4553 28.24 46.5833 28.784 46.7753 29.104C46.9673 29.392 47.3673 29.6 47.9753 29.728L47.7833 34.576C46.1513 34.576 44.8393 34.464 43.8473 34.24C42.8873 34.016 41.9113 33.568 40.9193 32.896C38.6153 34.016 36.2633 34.576 33.8633 34.576C28.9033 34.576 26.4233 31.952 26.4233 26.704C26.4233 24.144 27.1113 22.336 28.4873 21.28C29.8633 20.192 31.9753 19.552 34.8233 19.36L39.9593 18.976V17.488C39.9593 16.496 39.7353 15.824 39.2873 15.472C38.8393 15.088 38.1193 14.896 37.1273 14.896L28.1033 15.28L27.9113 10.816C31.3353 9.888 34.5833 9.424 37.6553 9.424C40.7593 9.424 42.9833 10.064 44.3273 11.344C45.7033 12.624 46.3913 14.672 46.3913 17.488ZM35.5913 23.824C33.7993 23.984 32.9033 24.944 32.9033 26.704C32.9033 28.464 33.6873 29.344 35.2553 29.344C36.4713 29.344 37.7993 29.152 39.2393 28.768L39.9593 28.576V23.44L35.5913 23.824ZM66.6829 10H73.1149V34H66.7309V32.656C64.4269 33.936 62.4269 34.576 60.7309 34.576C57.4029 34.576 55.1629 33.664 54.0109 31.84C52.8589 29.984 52.2829 26.896 52.2829 22.576V10H58.7149V22.672C58.7149 25.04 58.9069 26.656 59.2909 27.52C59.6749 28.384 60.6029 28.816 62.0749 28.816C63.4829 28.816 64.8109 28.592 66.0589 28.144L66.6829 27.952V10ZM79.3421 34V0.399998H85.7741V34H79.3421ZM93.2876 12.736C94.9836 10.528 97.8156 9.424 101.784 9.424C105.752 9.424 108.584 10.528 110.28 12.736C111.976 14.912 112.824 17.984 112.824 21.952C112.824 30.368 109.144 34.576 101.784 34.576C94.4236 34.576 90.7436 30.368 90.7436 21.952C90.7436 17.984 91.5916 14.912 93.2876 12.736ZM98.2316 27.376C98.9036 28.528 100.088 29.104 101.784 29.104C103.48 29.104 104.648 28.528 105.288 27.376C105.96 26.224 106.296 24.416 106.296 21.952C106.296 19.488 105.96 17.696 105.288 16.576C104.648 15.456 103.48 14.896 101.784 14.896C100.088 14.896 98.9036 15.456 98.2316 16.576C97.5916 17.696 97.2716 19.488 97.2716 21.952C97.2716 24.416 97.5916 26.224 98.2316 27.376Z" fill="#F5F5F5"/>
</svg>
